<?xml version="1.0" encoding="UTF-8" standalone="no"?>
<!-- Created with Inkscape (http://www.inkscape.org/) -->

<svg
   xmlns:dc="http://purl.org/dc/elements/1.1/"
   xmlns:cc="http://creativecommons.org/ns#"
   xmlns:rdf="http://www.w3.org/1999/02/22-rdf-syntax-ns#"
   xmlns:svg="http://www.w3.org/2000/svg"
   xmlns="http://www.w3.org/2000/svg"
   xmlns:sodipodi="http://sodipodi.sourceforge.net/DTD/sodipodi-0.dtd"
   xmlns:inkscape="http://www.inkscape.org/namespaces/inkscape"
   width="64"
   height="40"
   id="svg4152"
   version="1.1"
   inkscape:version="0.91 r13725"
   viewBox="0 0 64 40"
   sodipodi:docname="logo.svg"
   inkscape:export-filename="/home/josue/Documents/GCPrep/style/graphics/common/icon_files/logo16.png"
   inkscape:export-xdpi="22.5"
   inkscape:export-ydpi="22.5">
  <defs
     id="defs4154">
    <filter
       inkscape:label="Inset"
       inkscape:menu="Shadows and Glows"
       inkscape:menu-tooltip="Shadowy outer bevel"
       style="color-interpolation-filters:sRGB"
       id="filter4222">
      <feMorphology
         result="result1"
         in="SourceAlpha"
         operator="erode"
         radius="0.90000000000000002"
         id="feMorphology4224" />
      <feGaussianBlur
         stdDeviation="3.6"
         in="result1"
         result="result0"
         id="feGaussianBlur4226" />
      <feDiffuseLighting
         surfaceScale="-5"
         id="feDiffuseLighting4228">
        <feDistantLight
           elevation="45"
           azimuth="225"
           id="feDistantLight4230" />
      </feDiffuseLighting>
      <feComposite
         in2="result0"
         operator="in"
         result="result91"
         id="feComposite4232" />
      <feComposite
         in="SourceGraphic"
         in2="result91"
         id="feComposite4234" />
    </filter>
  </defs>
  <sodipodi:namedview
     id="base"
     pagecolor="#ffffff"
     bordercolor="#666666"
     borderopacity="1.0"
     inkscape:pageopacity="0.0"
     inkscape:pageshadow="2"
     inkscape:zoom="11.313709"
     inkscape:cx="38.318891"
     inkscape:cy="13.835717"
     inkscape:current-layer="layer3"
     showgrid="true"
     inkscape:document-units="px"
     inkscape:grid-bbox="true"
     showguides="true"
     inkscape:guide-bbox="true"
     inkscape:snap-intersection-paths="true"
     inkscape:object-nodes="true"
     inkscape:snap-smooth-nodes="true"
     inkscape:snap-nodes="true"
     inkscape:snap-text-baseline="false"
     inkscape:window-width="1920"
     inkscape:window-height="1017"
     inkscape:window-x="-8"
     inkscape:window-y="-8"
     inkscape:window-maximized="1"
     inkscape:object-paths="true"
     inkscape:snap-midpoints="true"
     inkscape:snap-object-midpoints="true"
     fit-margin-top="0"
     fit-margin-left="0"
     fit-margin-bottom="0"
     fit-margin-right="0">
    <sodipodi:guide
       position="52,20"
       orientation="1,0"
       id="guide4704"
       inkscape:label=""
       inkscape:color="rgb(0,0,255)" />
    <sodipodi:guide
       position="12,20"
       orientation="0,1"
       id="guide4712"
       inkscape:label=""
       inkscape:color="rgb(0,0,255)" />
    <sodipodi:guide
       position="35.620504,8"
       orientation="0,1"
       id="guide4731"
       inkscape:label=""
       inkscape:color="rgb(0,0,255)" />
    <sodipodi:guide
       position="32,32.5"
       orientation="1,0"
       id="guide4336" />
    <sodipodi:guide
       position="26.6875,47.5"
       orientation="0,1"
       id="guide4338"
       inkscape:label=""
       inkscape:color="rgb(0,0,255)" />
    <sodipodi:guide
       position="38.1875,32"
       orientation="0,1"
       id="guide4340"
       inkscape:label=""
       inkscape:color="rgb(0,0,255)" />
    <sodipodi:guide
       position="12,34.138717"
       orientation="1,0"
       id="guide5050"
       inkscape:label=""
       inkscape:color="rgb(0,0,255)" />
  </sodipodi:namedview>
  <metadata
     id="metadata4157">
    <rdf:RDF>
      <cc:Work
         rdf:about="">
        <dc:format>image/svg+xml</dc:format>
        <dc:type
           rdf:resource="http://purl.org/dc/dcmitype/StillImage" />
        <dc:title />
      </cc:Work>
    </rdf:RDF>
  </metadata>
  <g
     id="layer1"
     inkscape:label="BG"
     inkscape:groupmode="layer"
     style="display:inline"
     sodipodi:insensitive="true"
     transform="translate(0,-12)">
    <path
       style="display:inline;fill:#2980b9;fill-opacity:1;fill-rule:evenodd;stroke:none;stroke-width:1px;stroke-linecap:butt;stroke-linejoin:miter;stroke-opacity:1"
       d="M 64,32 52.452996,52 11.547004,52 0,32 11.547004,12 52.452996,12 Z"
       id="path4835-1"
       inkscape:connector-curvature="0"
       sodipodi:nodetypes="ccccccc" />
  </g>
  <g
     inkscape:groupmode="layer"
     id="layer3"
     inkscape:label="Text_path"
     style="display:inline"
     transform="translate(0,-12)">
    <g
       style="font-style:italic;font-variant:normal;font-weight:bold;font-stretch:normal;font-size:32.5px;line-height:125%;font-family:Lato;-inkscape-font-specification:'Lato, Bold Italic';text-align:center;letter-spacing:0px;word-spacing:0px;writing-mode:lr-tb;text-anchor:middle;fill:#ececec;fill-opacity:1;stroke:none;stroke-width:1px;stroke-linecap:butt;stroke-linejoin:miter;stroke-opacity:1"
       id="text5046">
      <path
         d="m 22.271886,40.644999 q 1.31625,0 2.32375,-0.24375 1.0075,-0.26 1.93375,-0.715 l 0.5525,-4.485 -2.6,0 q -0.37375,0 -0.585,-0.17875 -0.195,-0.195 -0.195,-0.4875 l 0.27625,-2.5025 7.3125,0 -1.17,9.44125 q -1.7875,1.3 -3.85125,1.9175 -2.06375,0.6175 -4.7125,0.6175 -2.16125,0 -3.9325,-0.78 -1.755,-0.78 -3.0225,-2.16125 -1.25125,-1.3975 -1.93375,-3.29875 -0.6825,-1.9175 -0.6825,-4.17625 0,-1.9825 0.43875,-3.75375 0.43875,-1.7875 1.235,-3.29875 0.8125,-1.51125 1.93375,-2.71375 1.1375,-1.21875 2.535,-2.06375 1.41375,-0.86125 3.03875,-1.31625 1.625,-0.455 3.4125,-0.455 1.43,0 2.6,0.26 1.17,0.24375 2.1125,0.6825 0.9425,0.43875 1.69,1.02375 0.7475,0.585 1.3325,1.235 l -1.365,1.755 q -0.43875,0.56875 -1.04,0.56875 -0.37375,0 -0.715,-0.2275 -0.53625,-0.3575 -1.04,-0.66625 -0.50375,-0.30875 -1.0725,-0.53625 -0.56875,-0.2275 -1.25125,-0.3575 -0.66625,-0.13 -1.56,-0.13 -1.755,0 -3.2175,0.715 -1.4625,0.69875 -2.51875,1.99875 -1.05625,1.28375 -1.64125,3.10375 -0.585,1.80375 -0.585,4.03 0,1.69 0.4225,3.0225 0.43875,1.3325 1.21875,2.25875 0.78,0.92625 1.86875,1.43 1.105,0.4875 2.45375,0.4875 z"
         id="path4220"
         inkscape:connector-curvature="0" />
      <path
         d="m 43.382668,40.433749 q 0.99125,0 1.7225,-0.14625 0.7475,-0.1625 1.28375,-0.40625 0.5525,-0.24375 0.9425,-0.50375 0.39,-0.27625 0.6825,-0.52 0.2925,-0.24375 0.52,-0.39 0.2275,-0.1625 0.455,-0.1625 0.195,0 0.325,0.08125 0.13,0.08125 0.21125,0.1625 l 1.47875,1.83625 q -1.5275,1.755 -3.59125,2.6975 -2.06375,0.92625 -4.745,0.92625 -2.16125,0 -3.85125,-0.76375 -1.69,-0.78 -2.86,-2.145 -1.17,-1.365 -1.7875,-3.23375 -0.60125,-1.86875 -0.60125,-4.07875 0,-2.03125 0.43875,-3.835 0.43875,-1.82 1.25125,-3.3475 0.8125,-1.54375 1.95,-2.7625 1.1375,-1.21875 2.51875,-2.08 1.38125,-0.86125 2.97375,-1.31625 1.60875,-0.455 3.3475,-0.455 1.28375,0 2.34,0.24375 1.05625,0.2275 1.9175,0.65 0.86125,0.4225 1.54375,1.02375 0.6825,0.585 1.235,1.31625 l -1.4625,1.755 q -0.1625,0.195 -0.39,0.34125 -0.21125,0.14625 -0.53625,0.14625 -0.3575,0 -0.6825,-0.2925 -0.325,-0.2925 -0.82875,-0.63375 -0.4875,-0.3575 -1.28375,-0.65 -0.78,-0.2925 -2.06375,-0.2925 -1.69,0 -3.13625,0.69875 -1.44625,0.6825 -2.51875,1.96625 -1.0725,1.28375 -1.69,3.10375 -0.60125,1.80375 -0.60125,4.0625 0,1.64125 0.40625,2.94125 0.4225,1.3 1.15375,2.21 0.73125,0.89375 1.73875,1.38125 1.0075,0.47125 2.19375,0.47125 z"
         id="path4222"
         inkscape:connector-curvature="0" />
    </g>
  </g>
  <g
     inkscape:groupmode="layer"
     id="layer4"
     inkscape:label="Text_font"
     style="display:none"
     transform="translate(0,-12)">
    <text
       sodipodi:linespacing="125%"
       id="text4169"
       y="43.748749"
       x="31.381281"
       style="font-style:italic;font-variant:normal;font-weight:bold;font-stretch:normal;font-size:32.5px;line-height:125%;font-family:Lato;-inkscape-font-specification:'Lato, Bold Italic';text-align:center;letter-spacing:0px;word-spacing:0px;writing-mode:lr-tb;text-anchor:middle;display:inline;fill:#ececec;fill-opacity:1;stroke:none;stroke-width:1px;stroke-linecap:butt;stroke-linejoin:miter;stroke-opacity:1"
       xml:space="preserve"><tspan
         y="43.748749"
         x="31.381281"
         id="tspan4171"
         sodipodi:role="line">GC</tspan></text>
  </g>
</svg>
